# xmcd
# Copyright (C) 1995-1998 Ti Kan
#
# Track frame offsets:
#       150
#       2732
#       18224
#       23599
#       42116
#       76436
#       81145
#       101893
#       113624
#       119652
#       131400
#       148633
#       157006
#       171415
#       180665
#       181995
#       192745
#       211861
#       214284
#       233552
#
# Disc length: 4722 seconds
#
# Revision: 0
# Processed by: cddbd v1.5.2PL0 Copyright (c) Steve Scherf et al.
# Submitted via: CD-Import v1.0
#
DISCID=0f127014
DTITLE=Nico Feer - Musikmosaik Gainsburg1
DYEAR=1900
DGENRE=
TTITLE0=Mm Gainsburg1
TTITLE1=Mm Gainsburg2
TTITLE2=Mm Gainsburg3
TTITLE3=Mm Gainsburg4
TTITLE4=Mm Gainsburg5
TTITLE5=Mm Gainsburg6
TTITLE6=Mm Gainsburg7
TTITLE7=Mm Gainsburg8
TTITLE8=Mm Gainsburg9
TTITLE9=Mm Gainsburg10
TTITLE10=Mm Gainsburg11
TTITLE11=Mm Gainsburg12
TTITLE12=Mm Gainsburg13
TTITLE13=Mm Gainsburg14
TTITLE14=Mm Gainsburg15
TTITLE15=Mm Gainsburg16
TTITLE16=Mm Gainsburg17
TTITLE17=Mm Gainsburg18
TTITLE18=Mm Gainsburg19
TTITLE19=Mm Gainsburg20
EXTD=
EXTT0=
EXTT1=
EXTT2=
EXTT3=
EXTT4=
EXTT5=
EXTT6=
EXTT7=
EXTT8=
EXTT9=
EXTT10=
EXTT11=
EXTT12=
EXTT13=
EXTT14=
EXTT15=
EXTT16=
EXTT17=
EXTT18=
EXTT19=
PLAYORDER=
